<?xml version="1.0" encoding="UTF-8" standalone="no"?>
<svg
   xmlns:dc="http://purl.org/dc/elements/1.1/"
   xmlns:cc="http://creativecommons.org/ns#"
   xmlns:rdf="http://www.w3.org/1999/02/22-rdf-syntax-ns#"
   xmlns:svg="http://www.w3.org/2000/svg"
   xmlns="http://www.w3.org/2000/svg"
   xmlns:sodipodi="http://sodipodi.sourceforge.net/DTD/sodipodi-0.dtd"
   xmlns:inkscape="http://www.inkscape.org/namespaces/inkscape"
   width="591pt"
   height="156pt"
   viewBox="0 0 591 156"
   version="1.1"
   id="svg26"
   sodipodi:docname="logo2021azulcent2.svg"
   inkscape:version="1.0.2-2 (e86c870879, 2021-01-15)">
  <metadata
     id="metadata32">
    <rdf:RDF>
      <cc:Work
         rdf:about="">
        <dc:format>image/svg+xml</dc:format>
        <dc:type
           rdf:resource="http://purl.org/dc/dcmitype/StillImage" />
        <dc:title></dc:title>
      </cc:Work>
    </rdf:RDF>
  </metadata>
  <defs
     id="defs30" />
  <sodipodi:namedview
     pagecolor="#ffffff"
     bordercolor="#666666"
     borderopacity="1"
     objecttolerance="10"
     gridtolerance="10"
     guidetolerance="10"
     inkscape:pageopacity="0"
     inkscape:pageshadow="2"
     inkscape:window-width="1366"
     inkscape:window-height="705"
     id="namedview28"
     showgrid="false"
     inkscape:zoom="0.64530457"
     inkscape:cx="367.36414"
     inkscape:cy="12.978884"
     inkscape:window-x="-8"
     inkscape:window-y="-8"
     inkscape:window-maximized="1"
     inkscape:current-layer="svg26" />
  <g
     id="#f5fdfdff" />
  <g
     id="#4edbc0ff"
     style="fill:#0072bc;fill-opacity:1">
    <path
       fill="#4edbc0"
       opacity="1.00"
       d=" M 303.96 5.08 C 305.57 4.46 306.51 5.61 307.06 6.96 C 310.51 14.74 303.61 23.29 306.21 30.86 C 314.89 30.91 323.98 32.35 332.04 28.93 C 329.44 41.20 327.18 53.57 324.72 65.89 C 316.86 66.28 309.00 65.68 301.15 66.11 C 300.63 79.70 297.63 93.21 297.24 106.73 C 301.15 113.72 310.18 112.22 316.94 111.02 C 317.23 122.94 317.11 134.90 315.82 146.77 C 297.00 150.00 275.16 153.14 259.34 139.65 C 241.71 118.44 256.80 88.37 255.31 64.76 C 252.13 63.65 248.45 64.16 245.29 62.72 C 242.60 58.25 246.15 53.45 249.81 50.83 C 267.75 35.52 284.83 18.63 303.96 5.08 M 279.19 39.07 C 275.95 44.85 277.85 52.63 277.00 58.98 C 280.50 59.32 286.00 60.04 285.02 55.04 C 282.34 46.34 293.59 51.08 297.97 48.91 C 299.48 41.45 285.91 48.90 285.55 42.35 C 285.05 39.47 281.72 38.56 279.19 39.07 M 310.41 45.55 C 307.50 46.28 301.48 44.15 303.11 48.78 C 307.88 49.79 313.49 50.86 317.93 48.82 C 319.44 44.56 312.64 44.69 310.41 45.55 M 276.17 62.04 C 275.89 68.13 272.77 76.33 275.00 81.01 C 286.11 84.58 282.67 71.22 283.67 64.99 C 284.01 60.76 278.93 61.84 276.17 62.04 M 273.16 84.01 C 273.49 90.15 270.77 97.75 272.91 103.13 C 282.54 107.83 280.13 95.61 280.98 90.02 C 284.09 83.59 276.78 83.14 273.16 84.01 M 271.23 108.07 C 269.51 113.78 270.90 120.01 273.98 125.02 C 280.55 133.90 292.91 134.29 303.03 134.00 C 303.69 122.35 286.87 131.57 281.59 123.47 C 273.68 119.99 283.78 103.56 271.23 108.07 Z"
       id="path3"
       style="fill:#0072bc;fill-opacity:1" />
    <path
       fill="#4edbc0"
       opacity="1.00"
       d=" M 130.10 13.17 C 134.19 11.57 134.47 16.95 134.64 19.69 C 132.13 34.71 128.97 49.61 128.92 64.93 C 119.75 58.74 108.77 57.56 98.01 57.03 C 86.42 59.49 73.11 65.64 70.25 78.28 C 64.09 94.44 79.90 107.15 94.61 108.45 C 143.73 109.81 192.78 108.11 241.87 108.06 C 241.52 122.18 245.70 136.18 253.18 147.92 C 198.12 148.14 143.06 147.89 88.00 148.03 C 71.46 149.13 54.86 143.21 41.75 133.27 C 25.47 120.79 18.07 99.41 20.39 79.37 C 21.23 64.91 29.88 52.51 38.42 41.41 C 58.42 23.53 86.75 14.06 113.41 19.46 C 119.98 21.89 124.40 14.79 130.10 13.17 M 88.37 34.44 C 62.47 36.83 38.27 58.88 39.05 85.93 C 43.43 119.18 81.76 137.98 111.92 129.78 C 112.35 127.79 111.64 125.86 110.81 124.09 C 95.71 124.98 78.86 125.46 66.11 116.00 C 52.66 108.18 44.39 91.25 47.85 75.89 C 51.64 53.07 75.26 41.98 95.96 39.85 C 99.25 32.31 92.73 33.75 88.37 34.44 M 98.99 34.06 C 98.67 36.80 98.10 41.50 101.99 41.03 C 107.42 39.85 121.62 45.16 118.01 34.10 C 111.68 33.72 105.32 34.01 98.99 34.06 M 120.29 124.19 C 118.47 125.88 116.06 127.60 118.00 130.91 C 125.56 131.25 133.15 131.06 140.73 130.84 C 143.17 129.27 142.32 125.09 139.37 124.60 C 133.25 122.86 126.57 124.38 120.29 124.19 M 148.24 124.15 C 143.02 134.16 159.90 130.90 165.01 131.00 C 170.75 133.40 173.43 127.47 169.83 124.11 C 162.64 123.72 155.42 123.95 148.24 124.15 M 177.00 124.06 C 174.51 136.82 193.83 129.47 200.34 130.32 C 203.87 118.15 183.31 126.05 177.00 124.06 M 207.24 124.15 C 206.30 125.88 205.66 127.81 206.10 129.80 C 213.32 132.50 222.12 130.97 229.34 130.31 C 233.34 117.88 213.46 126.27 207.24 124.15 Z"
       id="path5"
       style="fill:#0072bc;fill-opacity:1" />
    <path
       fill="#4edbc0"
       opacity="1.00"
       d=" M 449.41 13.54 C 450.80 13.40 453.58 13.12 454.97 12.98 C 453.29 33.67 445.80 54.18 447.90 74.96 C 440.89 75.08 433.89 75.10 426.89 74.93 C 430.55 68.07 431.23 60.13 432.46 52.59 C 434.24 40.54 438.08 28.45 436.10 16.19 C 440.08 14.38 445.10 15.01 449.41 13.54 Z"
       id="path7"
       style="fill:#0072bc;fill-opacity:1" />
    <path
       fill="#4edbc0"
       opacity="1.00"
       d=" M 532.39 23.44 C 544.23 23.93 556.11 25.55 567.91 22.98 C 570.29 37.03 568.05 51.26 564.73 64.95 C 555.83 62.67 549.32 51.44 538.31 55.33 C 533.48 55.71 529.76 60.13 532.20 64.82 C 541.42 76.84 556.57 84.58 562.95 99.01 C 566.70 112.19 561.57 127.43 550.29 135.30 C 535.04 149.72 512.38 149.74 493.01 145.96 C 485.33 143.27 479.73 149.30 472.99 150.04 C 474.67 134.12 480.78 118.10 475.97 101.98 C 482.17 101.22 484.69 109.05 490.33 110.65 C 498.15 115.33 508.13 115.38 515.79 110.53 C 517.81 101.88 509.10 96.95 503.10 92.85 C 490.81 85.24 480.13 70.10 484.18 55.10 C 488.91 33.62 512.37 23.75 532.39 23.44 M 533.38 36.47 C 521.41 37.87 504.92 41.82 503.51 56.33 C 504.76 71.10 516.80 81.75 528.06 89.94 C 535.56 97.35 542.24 109.11 537.69 119.72 C 526.71 132.93 508.34 129.74 493.30 128.08 C 488.64 135.86 499.75 134.59 504.30 135.75 C 519.07 137.09 537.21 134.09 545.07 120.05 C 551.59 107.43 541.65 94.44 532.79 86.21 C 523.05 76.65 507.62 65.56 512.99 50.00 C 522.30 42.21 536.15 43.89 547.38 44.53 C 552.47 48.29 555.13 40.64 551.25 38.76 C 545.84 36.10 539.30 35.57 533.38 36.47 Z"
       id="path9"
       style="fill:#0072bc;fill-opacity:1" />
    <path
       fill="#4edbc0"
       opacity="1.00"
       d=" M 165.39 27.61 C 173.32 26.94 181.88 29.81 186.03 36.96 C 187.89 47.47 189.03 62.74 178.82 69.81 C 169.48 78.36 154.68 78.95 143.96 73.00 C 130.01 56.88 142.21 24.83 165.39 27.61 M 159.37 42.23 C 155.29 47.24 153.85 53.45 155.52 59.76 C 158.84 66.53 168.84 62.05 169.80 55.74 C 174.19 48.41 168.52 38.02 159.37 42.23 Z"
       id="path11"
       style="fill:#0072bc;fill-opacity:1" />
    <path
       fill="#4edbc0"
       opacity="1.00"
       d=" M 224.39 27.47 C 229.28 26.10 234.17 27.56 238.76 29.17 C 243.94 34.08 241.18 41.72 240.78 47.89 C 240.29 56.92 237.30 65.91 239.03 74.95 C 232.32 75.09 225.62 75.09 218.92 74.94 C 221.92 65.26 226.49 54.46 223.65 44.31 C 220.54 38.86 213.18 42.89 211.59 47.56 C 210.92 56.63 208.62 65.85 209.97 74.94 C 203.63 74.99 197.29 75.25 190.97 74.91 C 193.28 60.08 197.88 45.24 196.06 30.19 C 201.87 30.69 213.79 23.53 211.16 34.16 C 215.21 31.31 219.21 27.84 224.39 27.47 Z"
       id="path13"
       style="fill:#0072bc;fill-opacity:1" />
    <path
       fill="#4edbc0"
       opacity="1.00"
       d=" M 354.28 27.33 C 358.19 25.32 354.17 34.79 358.48 31.44 C 361.85 28.06 367.41 25.64 371.90 28.21 C 372.24 33.33 369.06 37.89 367.61 42.68 C 363.35 42.44 355.79 43.01 355.77 48.87 C 355.37 57.59 351.83 66.15 353.98 74.90 C 347.33 74.95 340.60 76.07 334.01 74.86 C 338.65 60.57 341.23 45.18 340.07 30.25 C 344.83 29.41 349.54 28.35 354.28 27.33 Z"
       id="path15"
       style="fill:#0072bc;fill-opacity:1" />
    <path
       fill="#4edbc0"
       opacity="1.00"
       d=" M 396.37 27.42 C 405.50 25.87 419.26 29.54 420.53 40.39 C 423.67 53.73 418.74 69.99 404.73 74.74 C 393.88 77.53 377.13 78.44 372.99 65.01 C 368.31 48.76 377.18 27.32 396.37 27.42 M 393.26 42.13 C 388.59 47.26 386.01 59.10 393.29 62.72 C 407.20 65.41 409.84 36.14 393.26 42.13 Z"
       id="path17"
       style="fill:#0072bc;fill-opacity:1" />
    <path
       fill="#4edbc0"
       opacity="1.00"
       d=" M 353.37 100.41 C 363.72 97.20 358.72 109.22 356.61 113.74 C 356.08 121.55 350.73 112.42 347.29 115.19 C 344.35 117.51 342.24 121.02 342.85 125.00 C 342.61 132.63 339.63 140.72 342.82 148.05 C 335.88 148.06 328.94 148.10 322.01 147.94 C 325.63 133.34 329.96 118.27 328.10 103.19 C 333.52 103.16 346.27 96.12 343.15 107.15 C 346.52 104.90 348.69 100.60 353.37 100.41 Z"
       id="path19"
       style="fill:#0072bc;fill-opacity:1" />
    <path
       fill="#4edbc0"
       opacity="1.00"
       d=" M 388.34 100.40 C 396.54 100.01 404.98 102.34 413.10 100.11 C 407.86 111.40 408.87 124.34 406.60 136.39 C 404.75 140.96 408.76 144.10 410.21 147.91 C 397.38 148.69 384.64 146.06 371.98 148.99 C 357.36 146.25 355.71 126.13 362.36 115.43 C 367.32 105.92 378.08 101.36 388.34 100.40 M 384.32 114.27 C 374.74 117.07 374.01 138.53 386.14 135.23 C 395.47 132.54 396.76 111.89 384.32 114.27 Z"
       id="path21"
       style="fill:#0072bc;fill-opacity:1" />
    <path
       fill="#4edbc0"
       opacity="1.00"
       d=" M 448.37 100.38 C 454.67 99.37 461.92 99.76 466.87 104.25 C 469.35 118.93 462.54 133.49 464.90 147.96 C 458.58 147.99 452.26 148.25 445.96 147.92 C 447.32 137.95 450.62 128.24 450.99 118.11 C 448.14 113.30 439.44 114.14 437.68 119.66 C 436.12 128.98 435.21 138.47 434.86 147.94 C 428.57 148.01 422.29 148.24 416.02 147.91 C 419.80 135.23 421.87 122.16 423.04 108.99 C 423.22 106.83 421.63 105.18 420.97 103.25 C 427.49 102.75 440.58 95.94 437.12 108.11 C 440.13 104.65 443.78 101.41 448.37 100.38 Z"
       id="path23"
       style="fill:#0072bc;fill-opacity:1" />
  </g>
</svg>
